<?xml version="1.0" standalone="no"?>
<!DOCTYPE svg PUBLIC "-//W3C//DTD SVG 20010904//EN"
 "http://www.w3.org/TR/2001/REC-SVG-20010904/DTD/svg10.dtd">
<svg version="1.0" xmlns="http://www.w3.org/2000/svg"
 width="317.000000pt" height="159.000000pt" viewBox="0 0 317.000000 159.000000"
 preserveAspectRatio="xMidYMid meet">

<g transform="translate(0.000000,159.000000) scale(0.100000,-0.100000)"
fill="#000000" stroke="none">
<path d="M85 1571 c-11 -5 -31 -21 -45 -36 l-25 -27 -3 -671 c-2 -370 0 -692
3 -716 5 -32 16 -54 40 -78 l33 -33 1494 0 c1337 0 1496 2 1516 16 52 36 51
20 54 766 3 753 5 727 -51 765 -24 17 -113 18 -1511 20 -817 1 -1494 -2 -1505
-6z m596 -127 c17 -21 0 -49 -32 -49 -24 0 -36 23 -25 51 7 19 40 18 57 -2z
m1859 1 c26 -31 -13 -82 -44 -56 -19 16 -21 57 -3 64 22 9 34 7 47 -8z m-1020
-470 c0 -140 5 -147 120 -143 l85 3 0 123 0 122 43 0 42 0 0 -160 0 -160 -156
0 -156 0 -29 29 -29 29 0 134 0 134 40 -4 40 -4 0 -103z m-1218 -17 l3 -123
140 -2 139 -1 4 -36 3 -36 -179 0 -179 0 -6 83 c-4 45 -7 117 -7 160 l0 77 40
0 39 0 3 -122z m628 -31 c41 -84 76 -155 78 -159 2 -5 -18 -8 -45 -8 l-48 0
-49 100 c-27 55 -52 100 -56 100 -3 0 -28 -45 -55 -100 l-48 -100 -43 0 c-24
0 -44 3 -44 8 0 4 32 76 72 160 l72 152 46 0 45 -1 75 -152z m454 122 c37 -44
37 -124 0 -168 l-26 -31 26 -45 27 -45 -54 0 c-53 0 -53 0 -75 45 l-22 45 -70
0 -70 0 0 -45 0 -45 -40 0 -40 0 0 160 0 160 159 0 159 0 26 -31z m821 -4 l0
-30 -138 -3 c-113 -2 -139 -5 -144 -18 -10 -28 14 -36 115 -39 120 -3 133 -7
155 -44 24 -42 21 -84 -9 -120 l-26 -31 -159 0 -159 0 0 35 0 35 128 0 c70 0
133 4 140 9 8 5 12 17 10 27 -3 17 -16 20 -122 24 -109 5 -119 7 -137 29 -27
34 -26 107 3 138 21 23 25 23 182 21 l160 -3 1 -30z m395 0 l0 -34 -137 -3
c-132 -3 -138 -4 -141 -24 -4 -27 15 -32 111 -33 39 0 82 0 95 0 35 -1 72 -44
72 -83 -1 -96 -24 -108 -214 -108 l-146 0 0 35 0 35 129 0 c102 0 131 3 141
15 7 8 10 22 6 30 -4 12 -27 15 -119 15 -109 0 -114 1 -138 26 -18 19 -24 37
-24 69 0 32 6 50 24 69 24 26 26 26 183 26 l158 0 0 -35z m355 11 c30 -30 38
-74 33 -172 -3 -69 -6 -79 -31 -100 -26 -22 -36 -24 -148 -24 -120 0 -121 0
-150 29 -28 29 -29 32 -29 136 0 99 2 107 25 130 23 24 30 25 150 25 119 0
127 -1 150 -24z m-1983 -445 c16 -41 26 -76 24 -79 -12 -12 -35 10 -46 45 -19
58 -26 59 -45 4 -12 -38 -22 -51 -36 -51 -10 0 -19 1 -19 3 0 2 14 39 49 130
18 47 42 30 73 -52z m80 17 l3 -63 38 -3 37 -3 0 65 c0 52 3 66 15 66 12 0 15
-16 15 -80 l0 -80 -64 0 c-75 0 -76 2 -76 96 0 49 3 64 15 64 10 0 15 -16 17
-62z m268 47 c0 -14 -17 -20 -47 -16 -9 1 -13 -18 -13 -68 0 -58 -3 -69 -15
-65 -11 5 -15 22 -15 69 0 63 0 64 -27 62 -19 -1 -28 3 -31 16 -3 15 5 17 72
17 61 0 76 -3 76 -15z m147 -7 c14 -35 16 -107 3 -124 -15 -17 -111 -19 -128
-2 -7 7 -12 37 -12 68 0 31 5 61 12 68 7 7 35 12 63 12 44 0 53 -3 62 -22z
m263 7 c0 -8 -6 -15 -12 -16 -7 -1 -29 -2 -48 -4 -19 -2 -39 -3 -43 -4 -5 -1
-7 -20 -5 -43 3 -42 4 -43 41 -46 28 -2 37 0 37 12 0 9 7 16 15 16 10 0 15
-10 15 -30 l0 -30 -64 0 c-73 0 -76 3 -76 80 0 77 3 80 76 80 50 0 64 -3 64
-15z m148 3 c15 -15 16 -80 1 -95 -8 -8 -8 -17 1 -33 14 -27 11 -30 -17 -19
-13 5 -23 15 -23 24 0 10 -10 15 -30 15 -23 0 -30 -4 -30 -20 0 -11 -6 -20
-14 -20 -11 0 -15 19 -18 80 l-3 80 61 0 c33 0 65 -5 72 -12z m162 -14 c16
-40 12 -110 -6 -125 -22 -18 -106 -12 -121 9 -16 19 -17 96 -3 123 9 15 22 19
66 19 49 0 55 -2 64 -26z m52 -36 l3 -63 38 -3 37 -3 0 65 c0 52 3 66 15 66
12 0 15 -16 15 -80 l0 -80 -64 0 c-75 0 -76 2 -76 96 0 49 3 64 15 64 10 0 15
-16 17 -62z m256 50 c7 -7 12 -28 12 -48 0 -47 -15 -60 -67 -60 -36 0 -43 -3
-43 -20 0 -11 -7 -20 -15 -20 -12 0 -15 16 -15 80 l0 80 58 0 c32 0 63 -5 70
-12z m-1899 -69 c-16 -6 -62 -6 -120 -1 l-94 9 120 1 c87 0 113 -2 94 -9z
m2446 1 c-45 -12 -155 -12 -155 0 0 6 37 10 93 9 64 -1 83 -4 62 -9z m-2207
-442 c2 -19 -3 -30 -19 -39 -20 -10 -25 -9 -41 11 -24 30 -8 63 30 58 21 -2
28 -9 30 -30z m1850 20 c28 -28 1 -75 -37 -63 -25 8 -34 31 -21 56 12 21 40
25 58 7z"/>
<path d="M1122 968 l3 -43 75 -3 c116 -5 141 9 120 63 -9 24 -12 25 -105 25
l-96 0 3 -42z"/>
<path d="M2726 994 c-11 -10 -16 -34 -16 -74 0 -79 12 -90 100 -90 60 0 71 3
84 22 9 12 16 43 16 68 0 25 -7 56 -16 68 -13 19 -24 22 -84 22 -49 0 -73 -4
-84 -16z"/>
<path d="M1382 649 c-20 -7 -23 -15 -20 -46 3 -36 5 -38 37 -38 29 0 36 4 42
28 13 50 -12 73 -59 56z"/>
<path d="M1780 630 c0 -17 7 -20 40 -20 33 0 40 3 40 20 0 17 -7 20 -40 20
-33 0 -40 -3 -40 -20z"/>
<path d="M1963 652 c-14 -2 -25 -13 -29 -27 -10 -42 -1 -60 33 -63 37 -4 59
24 49 63 -7 26 -20 33 -53 27z"/>
<path d="M2250 635 c0 -24 3 -26 38 -23 29 2 37 7 37 23 0 16 -8 21 -37 23
-35 3 -38 1 -38 -23z"/>
</g>
</svg>
